#!OML:ASF X:\für Bonn\!DataBase\2005_08_11_Bastian_Final\c3d\Bastian.ASF
:FULLY-SPECIFIED
:DEGREES
121
root 0.0617662 17.023 -11.3625 123.996 12.2078 -197.128
lowerback 38.0191 0.144485 -2.354
upperback 21.9759 10.3122 -9.67577
thorax 7.59746 10.8752 -11.3597
lowerneck 6.8404 -2.57234 -15.3884
upperneck 12.836 -5.7086 3.22713
head 3.28478 -3.89581 3.37911
rclavicle -4.09496e-014 1.82882e-014
rhumerus 6.85004 34.364 -87.1224
rradius 108.134
rwrist 5.79123
rhand -20.2176 6.77992
rfingers 7.12502
rthumb 6.1297 -23.1114
lclavicle -4.09496e-014 1.82882e-014
lhumerus 18.3402 -33.2001 72.4557
lradius 112.722
lwrist 31.9128
lhand -20.3182 -15.2589
lfingers 7.12502
lthumb 6.03258 14.6352
rfemur 41.1911 10.1352 16.5783
rtibia 28.8328
rfoot -189.75 -173.079
rtoes 7.16628
lfemur -54.009 5.61376 20.9145
ltibia 25.1407
lfoot -24.6968 25.0969
ltoes -10.473
122
root 0.00141761 16.998 -11.5026 123.243 13.2511 -197.414
lowerback 38.0523 0.0738749 -1.95883
upperback 22.0972 10.3183 -9.76461
thorax 7.7793 10.9449 -11.6643
lowerneck 7.53976 -2.04541 -16.1577
upperneck 12.5136 -5.21293 3.08971
head 3.05153 -3.70837 3.48306
rclavicle -6.95746e-014 4.6118e-014
rhumerus 6.99471 34.7377 -86.3987
rradius 107.379
rwrist 5.81959
rhand -19.5368 6.5545
rfingers 7.12502
rthumb 6.78695 -23.3167
lclavicle -6.95746e-014 4.6118e-014
lhumerus 18.0515 -32.1468 72.5089
lradius 112.22
lwrist 31.8804
lhand -20.7751 -15.0832
lfingers 7.12502
lthumb 5.59153 14.823
rfemur 41.8648 10.5385 16.6517
rtibia 29.2075
rfoot -190.34 -172.911
rtoes 7.28173
lfemur -54.2282 6.47706 21.1022
ltibia 28.0559
lfoot -24.3077 25.8693
ltoes -1.60643
123
root -0.0559907 16.9677 -11.6522 122.587 14.0538 -197.634
lowerback 37.9573 -0.00602309 -1.72972
upperback 22.2438 10.2665 -9.82027
thorax 8.00223 10.9585 -11.81
lowerneck 8.23327 -1.54871 -16.8761
upperneck 12.005 -4.75231 2.97972
head 2.7634 -3.51516 3.58339
rclavicle 9.0447e-014 -1.55847e-013
rhumerus 7.08751 35.1094 -85.6295
rradius 106.672
rwrist 5.79075
rhand -18.8922 6.21007
rfingers 7.12502
rthumb 7.40923 -23.6402
lclavicle 9.0447e-014 -1.55847e-013
lhumerus 17.8079 -31.109 72.5362
lradius 111.735
lwrist 31.9274
lhand -20.9954 -14.6256
lfingers 7.12502
lthumb 5.37875 15.2861
rfemur 42.5294 10.8714 16.7062
rtibia 29.6593
rfoot -191.08 -172.975
rtoes 6.75961
lfemur -55.5176 7.28338 21.0006
ltibia 31.9498
lfoot -19.8216 28.6015
ltoes -6.8557
124
root -0.110834 16.9355 -11.8069 122.013 14.663 -197.785
lowerback 37.7205 -0.108931 -1.62253
upperback 22.4183 10.1388 -9.83317
thorax 8.27 10.9044 -11.8046
lowerneck 8.64418 -1.10847 -17.4684
upperneck 11.5802 -4.30549 2.78763
head 2.54017 -3.32058 3.62825
rclavicle -1.78906e-014 5.96354e-014
rhumerus 7.02934 35.5123 -84.8876
rradius 106.014
rwrist 5.80658
rhand -18.2847 5.87311
rfingers 7.12502
rthumb 7.99558 -23.9557
lclavicle -1.78906e-014 5.96354e-014
lhumerus 17.5626 -30.0808 72.6108
lradius 111.304
lwrist 32.1144
lhand -20.9297 -13.977
lfingers 7.12502
lthumb 5.44224 15.9331
rfemur 43.1965 11.1604 16.7739
rtibia 30.1603
rfoot -191.867 -173.204
rtoes 6.2028
lfemur -57.7782 13.9742 15.71
ltibia 36.542
lfoot -11.8668 23.1499
ltoes -9.84953
125
root -0.164508 16.903 -11.9631 121.538 15.1023 -197.972
lowerback 37.3235 -0.199759 -1.65714
upperback 22.6002 9.98293 -9.8622
thorax 8.58698 10.8136 -11.7161
lowerneck 8.75312 -0.753732 -17.8279
upperneck 11.2173 -3.8798 2.52482
head 2.37697 -3.11964 3.60701
rclavicle 1.88845e-014 8.50798e-014
rhumerus 6.78122 35.9057 -84.2612
rradius 105.414
rwrist 5.8797
rhand -17.7764 5.57617
rfingers 7.12502
rthumb 8.48613 -24.2333
lclavicle 1.88845e-014 8.50798e-014
lhumerus 17.3753 -29.0706 72.6313
lradius 110.91
lwrist 32.4477
lhand -20.5016 -13.1472
lfingers 7.12502
lthumb 5.85557 16.7519
rfemur 43.7576 11.5144 16.7472
rtibia 30.7251
rfoot -192.663 -173.462
rtoes 6.08652
lfemur -60.0597 18.0207 12.4953
ltibia 41.6209
lfoot -5.63129 19.9702
ltoes -13.188
